<mxfile host="app.diagrams.net" agent="Mozilla/5.0 (Macintosh; Intel Mac OS X 10_15_7) AppleWebKit/537.36 (KHTML, like Gecko) Chrome/140.0.0.0 Safari/537.36" version="28.2.5">
  <diagram name="Positivos o Negativos (10 números)" id="Q71rAFPMbbPDAgyXanvC">
    <mxGraphModel dx="652" dy="404" grid="1" gridSize="10" guides="1" tooltips="1" connect="1" arrows="1" fold="1" page="1" pageScale="1" pageWidth="827" pageHeight="1169" math="0" shadow="0">
      <root>
        <mxCell id="0" />
        <mxCell id="1" parent="0" />
        <mxCell id="RKgv_uAVDBzMmzX2CUga-1" value="Inicio" style="ellipse;whiteSpace=wrap;html=1;aspect=fixed;" vertex="1" parent="1">
          <mxGeometry x="100" y="130" width="80" height="80" as="geometry" />
        </mxCell>
        <mxCell id="RKgv_uAVDBzMmzX2CUga-2" value="&amp;nbsp;i=1, n: Entero" style="rounded=1;whiteSpace=wrap;html=1;" vertex="1" parent="1">
          <mxGeometry x="240" y="140" width="90" height="60" as="geometry" />
        </mxCell>
        <mxCell id="RKgv_uAVDBzMmzX2CUga-3" value="i &amp;lt;= 10" style="rhombus;whiteSpace=wrap;html=1;" vertex="1" parent="1">
          <mxGeometry x="240" y="230" width="100" height="80" as="geometry" />
        </mxCell>
        <mxCell id="RKgv_uAVDBzMmzX2CUga-23" style="edgeStyle=orthogonalEdgeStyle;rounded=0;orthogonalLoop=1;jettySize=auto;html=1;exitX=0.5;exitY=1;exitDx=0;exitDy=0;entryX=0;entryY=0;entryDx=0;entryDy=0;" edge="1" parent="1" source="RKgv_uAVDBzMmzX2CUga-4" target="RKgv_uAVDBzMmzX2CUga-6">
          <mxGeometry relative="1" as="geometry" />
        </mxCell>
        <mxCell id="RKgv_uAVDBzMmzX2CUga-4" value="ESCRIBIR: &quot;Introduce un número&quot;&lt;div&gt;LEER: n&amp;nbsp;&lt;/div&gt;" style="shape=parallelogram;perimeter=parallelogramPerimeter;whiteSpace=wrap;html=1;" vertex="1" parent="1">
          <mxGeometry x="10" y="340" width="290" height="60" as="geometry" />
        </mxCell>
        <mxCell id="RKgv_uAVDBzMmzX2CUga-6" value="n &amp;gt;= 0" style="rhombus;whiteSpace=wrap;html=1;" vertex="1" parent="1">
          <mxGeometry x="230" y="480" width="80" height="80" as="geometry" />
        </mxCell>
        <mxCell id="RKgv_uAVDBzMmzX2CUga-7" value="ESCRIBIR: &quot;El número es positivo&quot;" style="rounded=1;whiteSpace=wrap;html=1;" vertex="1" parent="1">
          <mxGeometry x="40" y="490" width="110" height="60" as="geometry" />
        </mxCell>
        <mxCell id="RKgv_uAVDBzMmzX2CUga-8" value="ESCRIBIR: &quot;El número es negativo&quot;" style="rounded=1;whiteSpace=wrap;html=1;" vertex="1" parent="1">
          <mxGeometry x="390" y="490" width="100" height="60" as="geometry" />
        </mxCell>
        <mxCell id="RKgv_uAVDBzMmzX2CUga-9" value="i = i + 1" style="rounded=1;whiteSpace=wrap;html=1;" vertex="1" parent="1">
          <mxGeometry x="360" y="360" width="80" height="60" as="geometry" />
        </mxCell>
        <mxCell id="RKgv_uAVDBzMmzX2CUga-10" value="Fin" style="ellipse;whiteSpace=wrap;html=1;aspect=fixed;" vertex="1" parent="1">
          <mxGeometry x="460" y="230" width="80" height="80" as="geometry" />
        </mxCell>
        <mxCell id="RKgv_uAVDBzMmzX2CUga-11" value="" style="endArrow=block;rounded=1;html=1;" edge="1" parent="1" source="RKgv_uAVDBzMmzX2CUga-1" target="RKgv_uAVDBzMmzX2CUga-2">
          <mxGeometry relative="1" as="geometry" />
        </mxCell>
        <mxCell id="RKgv_uAVDBzMmzX2CUga-12" value="" style="endArrow=block;rounded=1;html=1;" edge="1" parent="1" source="RKgv_uAVDBzMmzX2CUga-2" target="RKgv_uAVDBzMmzX2CUga-3">
          <mxGeometry relative="1" as="geometry" />
        </mxCell>
        <mxCell id="RKgv_uAVDBzMmzX2CUga-13" value="Sí" style="endArrow=block;rounded=1;html=1;" edge="1" parent="1" source="RKgv_uAVDBzMmzX2CUga-3" target="RKgv_uAVDBzMmzX2CUga-4">
          <mxGeometry relative="1" as="geometry" />
        </mxCell>
        <mxCell id="RKgv_uAVDBzMmzX2CUga-14" value="No" style="endArrow=block;rounded=1;html=1;" edge="1" parent="1" source="RKgv_uAVDBzMmzX2CUga-3" target="RKgv_uAVDBzMmzX2CUga-10">
          <mxGeometry relative="1" as="geometry" />
        </mxCell>
        <mxCell id="RKgv_uAVDBzMmzX2CUga-17" value="Sí" style="endArrow=block;rounded=1;html=1;" edge="1" parent="1" source="RKgv_uAVDBzMmzX2CUga-6" target="RKgv_uAVDBzMmzX2CUga-7">
          <mxGeometry relative="1" as="geometry" />
        </mxCell>
        <mxCell id="RKgv_uAVDBzMmzX2CUga-18" value="No" style="endArrow=block;rounded=1;html=1;" edge="1" parent="1" source="RKgv_uAVDBzMmzX2CUga-6" target="RKgv_uAVDBzMmzX2CUga-8">
          <mxGeometry relative="1" as="geometry" />
        </mxCell>
        <mxCell id="RKgv_uAVDBzMmzX2CUga-19" value="" style="endArrow=block;rounded=1;html=1;" edge="1" parent="1" source="RKgv_uAVDBzMmzX2CUga-7" target="RKgv_uAVDBzMmzX2CUga-9">
          <mxGeometry relative="1" as="geometry" />
        </mxCell>
        <mxCell id="RKgv_uAVDBzMmzX2CUga-20" value="" style="endArrow=block;rounded=1;html=1;" edge="1" parent="1" source="RKgv_uAVDBzMmzX2CUga-8" target="RKgv_uAVDBzMmzX2CUga-9">
          <mxGeometry relative="1" as="geometry" />
        </mxCell>
        <mxCell id="RKgv_uAVDBzMmzX2CUga-21" value="" style="endArrow=block;rounded=1;html=1;" edge="1" parent="1" source="RKgv_uAVDBzMmzX2CUga-9" target="RKgv_uAVDBzMmzX2CUga-3">
          <mxGeometry relative="1" as="geometry" />
        </mxCell>
      </root>
    </mxGraphModel>
  </diagram>
</mxfile>
